G75*
%MOIN*%
%OFA0B0*%
%FSLAX25Y25*%
%IPPOS*%
%LPD*%
%AMOC8*
5,1,8,0,0,1.08239X$1,22.5*
%
%ADD10R,0.04331X0.03937*%
%ADD11R,0.04331X0.04724*%
%ADD12R,0.03937X0.04331*%
%ADD13R,0.04724X0.02165*%
%ADD14R,0.00787X0.03150*%
%ADD15R,0.00787X0.03543*%
D10*
X0144746Y0143750D03*
X0144746Y0149750D03*
X0151439Y0149750D03*
X0151439Y0143750D03*
X0154746Y0116250D03*
X0154746Y0110250D03*
X0154746Y0104250D03*
X0161439Y0104250D03*
X0161439Y0110250D03*
X0161439Y0116250D03*
X0184746Y0133750D03*
X0184746Y0139750D03*
X0191439Y0139750D03*
X0191439Y0133750D03*
X0276746Y0143750D03*
X0276746Y0149750D03*
X0283439Y0149750D03*
X0283439Y0143750D03*
X0286746Y0116250D03*
X0286746Y0110250D03*
X0286746Y0104250D03*
X0293439Y0104250D03*
X0293439Y0110250D03*
X0293439Y0116250D03*
X0316746Y0133750D03*
X0316746Y0139750D03*
X0323439Y0139750D03*
X0323439Y0133750D03*
X0408746Y0143750D03*
X0408746Y0149750D03*
X0415439Y0149750D03*
X0415439Y0143750D03*
X0418746Y0116250D03*
X0418746Y0110250D03*
X0418746Y0104250D03*
X0425439Y0104250D03*
X0425439Y0110250D03*
X0425439Y0116250D03*
X0448746Y0133750D03*
X0448746Y0139750D03*
X0455439Y0139750D03*
X0455439Y0133750D03*
X0540746Y0143750D03*
X0540746Y0149750D03*
X0547439Y0149750D03*
X0547439Y0143750D03*
X0550746Y0116250D03*
X0550746Y0110250D03*
X0550746Y0104250D03*
X0557439Y0104250D03*
X0557439Y0110250D03*
X0557439Y0116250D03*
X0580746Y0133750D03*
X0580746Y0139750D03*
X0587439Y0139750D03*
X0587439Y0133750D03*
X0557439Y0261250D03*
X0557439Y0267250D03*
X0557439Y0273250D03*
X0550746Y0273250D03*
X0550746Y0267250D03*
X0550746Y0261250D03*
X0547439Y0300750D03*
X0547439Y0306750D03*
X0540746Y0306750D03*
X0540746Y0300750D03*
X0580746Y0296750D03*
X0580746Y0290750D03*
X0587439Y0290750D03*
X0587439Y0296750D03*
X0557439Y0418250D03*
X0557439Y0424250D03*
X0557439Y0430250D03*
X0550746Y0430250D03*
X0550746Y0424250D03*
X0550746Y0418250D03*
X0580746Y0447750D03*
X0580746Y0453750D03*
X0587439Y0453750D03*
X0587439Y0447750D03*
X0547439Y0457750D03*
X0547439Y0463750D03*
X0540746Y0463750D03*
X0540746Y0457750D03*
X0455439Y0453750D03*
X0455439Y0447750D03*
X0448746Y0447750D03*
X0448746Y0453750D03*
X0425439Y0430250D03*
X0425439Y0424250D03*
X0425439Y0418250D03*
X0418746Y0418250D03*
X0418746Y0424250D03*
X0418746Y0430250D03*
X0415439Y0457750D03*
X0415439Y0463750D03*
X0408746Y0463750D03*
X0408746Y0457750D03*
X0323439Y0453750D03*
X0323439Y0447750D03*
X0316746Y0447750D03*
X0316746Y0453750D03*
X0293439Y0430250D03*
X0293439Y0424250D03*
X0293439Y0418250D03*
X0286746Y0418250D03*
X0286746Y0424250D03*
X0286746Y0430250D03*
X0283439Y0457750D03*
X0283439Y0463750D03*
X0276746Y0463750D03*
X0276746Y0457750D03*
X0191439Y0453750D03*
X0191439Y0447750D03*
X0184746Y0447750D03*
X0184746Y0453750D03*
X0161439Y0430250D03*
X0161439Y0424250D03*
X0161439Y0418250D03*
X0154746Y0418250D03*
X0154746Y0424250D03*
X0154746Y0430250D03*
X0151439Y0457750D03*
X0151439Y0463750D03*
X0144746Y0463750D03*
X0144746Y0457750D03*
X0154746Y0575250D03*
X0154746Y0581250D03*
X0154746Y0587250D03*
X0161439Y0587250D03*
X0161439Y0581250D03*
X0161439Y0575250D03*
X0184746Y0604750D03*
X0184746Y0610750D03*
X0191439Y0610750D03*
X0191439Y0604750D03*
X0151439Y0614750D03*
X0151439Y0620750D03*
X0144746Y0620750D03*
X0144746Y0614750D03*
X0276746Y0614750D03*
X0276746Y0620750D03*
X0283439Y0620750D03*
X0283439Y0614750D03*
X0286746Y0587250D03*
X0286746Y0581250D03*
X0286746Y0575250D03*
X0293439Y0575250D03*
X0293439Y0581250D03*
X0293439Y0587250D03*
X0316746Y0604750D03*
X0316746Y0610750D03*
X0323439Y0610750D03*
X0323439Y0604750D03*
X0408746Y0614750D03*
X0408746Y0620750D03*
X0415439Y0620750D03*
X0415439Y0614750D03*
X0418746Y0587250D03*
X0418746Y0581250D03*
X0418746Y0575250D03*
X0425439Y0575250D03*
X0425439Y0581250D03*
X0425439Y0587250D03*
X0448746Y0604750D03*
X0448746Y0610750D03*
X0455439Y0610750D03*
X0455439Y0604750D03*
X0540746Y0614750D03*
X0540746Y0620750D03*
X0547439Y0620750D03*
X0547439Y0614750D03*
X0550746Y0587250D03*
X0550746Y0581250D03*
X0550746Y0575250D03*
X0557439Y0575250D03*
X0557439Y0581250D03*
X0557439Y0587250D03*
X0580746Y0604750D03*
X0580746Y0610750D03*
X0587439Y0610750D03*
X0587439Y0604750D03*
X0415439Y0306750D03*
X0415439Y0300750D03*
X0408746Y0300750D03*
X0408746Y0306750D03*
X0418746Y0273250D03*
X0418746Y0267250D03*
X0418746Y0261250D03*
X0425439Y0261250D03*
X0425439Y0267250D03*
X0425439Y0273250D03*
X0448746Y0290750D03*
X0448746Y0296750D03*
X0455439Y0296750D03*
X0455439Y0290750D03*
X0323439Y0290750D03*
X0323439Y0296750D03*
X0316746Y0296750D03*
X0316746Y0290750D03*
X0293439Y0273250D03*
X0293439Y0267250D03*
X0293439Y0261250D03*
X0286746Y0261250D03*
X0286746Y0267250D03*
X0286746Y0273250D03*
X0283439Y0300750D03*
X0283439Y0306750D03*
X0276746Y0306750D03*
X0276746Y0300750D03*
X0191439Y0296750D03*
X0191439Y0290750D03*
X0184746Y0290750D03*
X0184746Y0296750D03*
X0161439Y0273250D03*
X0161439Y0267250D03*
X0161439Y0261250D03*
X0154746Y0261250D03*
X0154746Y0267250D03*
X0154746Y0273250D03*
X0151439Y0300750D03*
X0151439Y0306750D03*
X0144746Y0306750D03*
X0144746Y0300750D03*
D11*
X0144647Y0290376D03*
X0151537Y0290376D03*
X0151537Y0281124D03*
X0144647Y0281124D03*
X0144647Y0133376D03*
X0144647Y0124124D03*
X0151537Y0124124D03*
X0151537Y0133376D03*
X0276647Y0133376D03*
X0283537Y0133376D03*
X0283537Y0124124D03*
X0276647Y0124124D03*
X0408647Y0124124D03*
X0415537Y0124124D03*
X0415537Y0133376D03*
X0408647Y0133376D03*
X0540647Y0133376D03*
X0547537Y0133376D03*
X0547537Y0124124D03*
X0540647Y0124124D03*
X0540647Y0281124D03*
X0547537Y0281124D03*
X0547537Y0290376D03*
X0540647Y0290376D03*
X0415537Y0290376D03*
X0408647Y0290376D03*
X0408647Y0281124D03*
X0415537Y0281124D03*
X0283537Y0281124D03*
X0276647Y0281124D03*
X0276647Y0290376D03*
X0283537Y0290376D03*
X0283537Y0438124D03*
X0276647Y0438124D03*
X0276647Y0447376D03*
X0283537Y0447376D03*
X0408647Y0447376D03*
X0415537Y0447376D03*
X0415537Y0438124D03*
X0408647Y0438124D03*
X0540647Y0438124D03*
X0547537Y0438124D03*
X0547537Y0447376D03*
X0540647Y0447376D03*
X0540647Y0595124D03*
X0547537Y0595124D03*
X0547537Y0604376D03*
X0540647Y0604376D03*
X0415537Y0604376D03*
X0408647Y0604376D03*
X0408647Y0595124D03*
X0415537Y0595124D03*
X0283537Y0595124D03*
X0276647Y0595124D03*
X0276647Y0604376D03*
X0283537Y0604376D03*
X0151537Y0604376D03*
X0151537Y0595124D03*
X0144647Y0595124D03*
X0144647Y0604376D03*
X0144647Y0447376D03*
X0144647Y0438124D03*
X0151537Y0438124D03*
X0151537Y0447376D03*
D12*
X0110592Y0070404D03*
X0110592Y0077096D03*
X0135592Y0077096D03*
X0135592Y0070404D03*
X0138092Y0118904D03*
X0138092Y0125596D03*
X0138092Y0132404D03*
X0138092Y0139096D03*
X0135592Y0227404D03*
X0135592Y0234096D03*
X0110592Y0234096D03*
X0110592Y0227404D03*
X0138092Y0275904D03*
X0138092Y0282596D03*
X0138092Y0289404D03*
X0138092Y0296096D03*
X0135592Y0384404D03*
X0135592Y0391096D03*
X0110592Y0391096D03*
X0110592Y0384404D03*
X0138092Y0432904D03*
X0138092Y0439596D03*
X0138092Y0446404D03*
X0138092Y0453096D03*
X0135592Y0541404D03*
X0135592Y0548096D03*
X0110592Y0548096D03*
X0110592Y0541404D03*
X0138092Y0589904D03*
X0138092Y0596596D03*
X0138092Y0603404D03*
X0138092Y0610096D03*
X0242592Y0548096D03*
X0242592Y0541404D03*
X0267592Y0541404D03*
X0267592Y0548096D03*
X0270092Y0589904D03*
X0270092Y0596596D03*
X0270092Y0603404D03*
X0270092Y0610096D03*
X0374592Y0548096D03*
X0374592Y0541404D03*
X0399592Y0541404D03*
X0399592Y0548096D03*
X0402092Y0589904D03*
X0402092Y0596596D03*
X0402092Y0603404D03*
X0402092Y0610096D03*
X0506592Y0548096D03*
X0506592Y0541404D03*
X0531592Y0541404D03*
X0531592Y0548096D03*
X0534092Y0589904D03*
X0534092Y0596596D03*
X0534092Y0603404D03*
X0534092Y0610096D03*
X0534092Y0453096D03*
X0534092Y0446404D03*
X0534092Y0439596D03*
X0534092Y0432904D03*
X0531592Y0391096D03*
X0531592Y0384404D03*
X0506592Y0384404D03*
X0506592Y0391096D03*
X0534092Y0296096D03*
X0534092Y0289404D03*
X0534092Y0282596D03*
X0534092Y0275904D03*
X0531592Y0234096D03*
X0531592Y0227404D03*
X0506592Y0227404D03*
X0506592Y0234096D03*
X0534092Y0139096D03*
X0534092Y0132404D03*
X0534092Y0125596D03*
X0534092Y0118904D03*
X0531592Y0077096D03*
X0531592Y0070404D03*
X0506592Y0070404D03*
X0506592Y0077096D03*
X0402092Y0118904D03*
X0402092Y0125596D03*
X0402092Y0132404D03*
X0402092Y0139096D03*
X0399592Y0077096D03*
X0399592Y0070404D03*
X0374592Y0070404D03*
X0374592Y0077096D03*
X0270092Y0118904D03*
X0270092Y0125596D03*
X0270092Y0132404D03*
X0270092Y0139096D03*
X0267592Y0077096D03*
X0267592Y0070404D03*
X0242592Y0070404D03*
X0242592Y0077096D03*
X0242592Y0227404D03*
X0242592Y0234096D03*
X0267592Y0234096D03*
X0267592Y0227404D03*
X0270092Y0275904D03*
X0270092Y0282596D03*
X0270092Y0289404D03*
X0270092Y0296096D03*
X0267592Y0384404D03*
X0267592Y0391096D03*
X0242592Y0391096D03*
X0242592Y0384404D03*
X0270092Y0432904D03*
X0270092Y0439596D03*
X0270092Y0446404D03*
X0270092Y0453096D03*
X0374592Y0391096D03*
X0374592Y0384404D03*
X0399592Y0384404D03*
X0399592Y0391096D03*
X0402092Y0432904D03*
X0402092Y0439596D03*
X0402092Y0446404D03*
X0402092Y0453096D03*
X0402092Y0296096D03*
X0402092Y0289404D03*
X0402092Y0282596D03*
X0402092Y0275904D03*
X0399592Y0234096D03*
X0399592Y0227404D03*
X0374592Y0227404D03*
X0374592Y0234096D03*
D13*
X0381974Y0234490D03*
X0381974Y0230750D03*
X0381974Y0227010D03*
X0392211Y0227010D03*
X0392211Y0234490D03*
X0513974Y0234490D03*
X0513974Y0230750D03*
X0513974Y0227010D03*
X0524211Y0227010D03*
X0524211Y0234490D03*
X0524211Y0384010D03*
X0524211Y0391490D03*
X0513974Y0391490D03*
X0513974Y0387750D03*
X0513974Y0384010D03*
X0392211Y0384010D03*
X0392211Y0391490D03*
X0381974Y0391490D03*
X0381974Y0387750D03*
X0381974Y0384010D03*
X0260211Y0384010D03*
X0260211Y0391490D03*
X0249974Y0391490D03*
X0249974Y0387750D03*
X0249974Y0384010D03*
X0128211Y0384010D03*
X0128211Y0391490D03*
X0117974Y0391490D03*
X0117974Y0387750D03*
X0117974Y0384010D03*
X0117974Y0234490D03*
X0117974Y0230750D03*
X0117974Y0227010D03*
X0128211Y0227010D03*
X0128211Y0234490D03*
X0249974Y0234490D03*
X0249974Y0230750D03*
X0249974Y0227010D03*
X0260211Y0227010D03*
X0260211Y0234490D03*
X0260211Y0077490D03*
X0260211Y0070010D03*
X0249974Y0070010D03*
X0249974Y0073750D03*
X0249974Y0077490D03*
X0128211Y0077490D03*
X0128211Y0070010D03*
X0117974Y0070010D03*
X0117974Y0073750D03*
X0117974Y0077490D03*
X0381974Y0077490D03*
X0381974Y0073750D03*
X0381974Y0070010D03*
X0392211Y0070010D03*
X0392211Y0077490D03*
X0513974Y0077490D03*
X0513974Y0073750D03*
X0513974Y0070010D03*
X0524211Y0070010D03*
X0524211Y0077490D03*
X0524211Y0541010D03*
X0524211Y0548490D03*
X0513974Y0548490D03*
X0513974Y0544750D03*
X0513974Y0541010D03*
X0392211Y0541010D03*
X0392211Y0548490D03*
X0381974Y0548490D03*
X0381974Y0544750D03*
X0381974Y0541010D03*
X0260211Y0541010D03*
X0260211Y0548490D03*
X0249974Y0548490D03*
X0249974Y0544750D03*
X0249974Y0541010D03*
X0128211Y0541010D03*
X0128211Y0548490D03*
X0117974Y0548490D03*
X0117974Y0544750D03*
X0117974Y0541010D03*
D14*
X0161006Y0541207D03*
X0162581Y0541207D03*
X0164155Y0541207D03*
X0165730Y0541207D03*
X0167305Y0541207D03*
X0168880Y0541207D03*
X0170455Y0541207D03*
X0172029Y0541207D03*
X0173604Y0541207D03*
X0175179Y0541207D03*
X0173604Y0548293D03*
X0172029Y0548293D03*
X0170455Y0548293D03*
X0168880Y0548293D03*
X0167305Y0548293D03*
X0165730Y0548293D03*
X0164155Y0548293D03*
X0162581Y0548293D03*
X0161006Y0548293D03*
X0293006Y0548293D03*
X0294581Y0548293D03*
X0296155Y0548293D03*
X0297730Y0548293D03*
X0299305Y0548293D03*
X0300880Y0548293D03*
X0302455Y0548293D03*
X0304029Y0548293D03*
X0305604Y0548293D03*
X0305604Y0541207D03*
X0304029Y0541207D03*
X0302455Y0541207D03*
X0300880Y0541207D03*
X0299305Y0541207D03*
X0297730Y0541207D03*
X0296155Y0541207D03*
X0294581Y0541207D03*
X0293006Y0541207D03*
X0307179Y0541207D03*
X0425006Y0541207D03*
X0426581Y0541207D03*
X0428155Y0541207D03*
X0429730Y0541207D03*
X0431305Y0541207D03*
X0432880Y0541207D03*
X0434455Y0541207D03*
X0436029Y0541207D03*
X0437604Y0541207D03*
X0439179Y0541207D03*
X0437604Y0548293D03*
X0436029Y0548293D03*
X0434455Y0548293D03*
X0432880Y0548293D03*
X0431305Y0548293D03*
X0429730Y0548293D03*
X0428155Y0548293D03*
X0426581Y0548293D03*
X0425006Y0548293D03*
X0557006Y0548293D03*
X0558581Y0548293D03*
X0560155Y0548293D03*
X0561730Y0548293D03*
X0563305Y0548293D03*
X0564880Y0548293D03*
X0566455Y0548293D03*
X0568029Y0548293D03*
X0569604Y0548293D03*
X0569604Y0541207D03*
X0568029Y0541207D03*
X0566455Y0541207D03*
X0564880Y0541207D03*
X0563305Y0541207D03*
X0561730Y0541207D03*
X0560155Y0541207D03*
X0558581Y0541207D03*
X0557006Y0541207D03*
X0571179Y0541207D03*
X0569604Y0391293D03*
X0568029Y0391293D03*
X0566455Y0391293D03*
X0564880Y0391293D03*
X0563305Y0391293D03*
X0561730Y0391293D03*
X0560155Y0391293D03*
X0558581Y0391293D03*
X0557006Y0391293D03*
X0557006Y0384207D03*
X0558581Y0384207D03*
X0560155Y0384207D03*
X0561730Y0384207D03*
X0563305Y0384207D03*
X0564880Y0384207D03*
X0566455Y0384207D03*
X0568029Y0384207D03*
X0569604Y0384207D03*
X0571179Y0384207D03*
X0439179Y0384207D03*
X0437604Y0384207D03*
X0436029Y0384207D03*
X0434455Y0384207D03*
X0432880Y0384207D03*
X0431305Y0384207D03*
X0429730Y0384207D03*
X0428155Y0384207D03*
X0426581Y0384207D03*
X0425006Y0384207D03*
X0425006Y0391293D03*
X0426581Y0391293D03*
X0428155Y0391293D03*
X0429730Y0391293D03*
X0431305Y0391293D03*
X0432880Y0391293D03*
X0434455Y0391293D03*
X0436029Y0391293D03*
X0437604Y0391293D03*
X0307179Y0384207D03*
X0305604Y0384207D03*
X0304029Y0384207D03*
X0302455Y0384207D03*
X0300880Y0384207D03*
X0299305Y0384207D03*
X0297730Y0384207D03*
X0296155Y0384207D03*
X0294581Y0384207D03*
X0293006Y0384207D03*
X0293006Y0391293D03*
X0294581Y0391293D03*
X0296155Y0391293D03*
X0297730Y0391293D03*
X0299305Y0391293D03*
X0300880Y0391293D03*
X0302455Y0391293D03*
X0304029Y0391293D03*
X0305604Y0391293D03*
X0175179Y0384207D03*
X0173604Y0384207D03*
X0172029Y0384207D03*
X0170455Y0384207D03*
X0168880Y0384207D03*
X0167305Y0384207D03*
X0165730Y0384207D03*
X0164155Y0384207D03*
X0162581Y0384207D03*
X0161006Y0384207D03*
X0161006Y0391293D03*
X0162581Y0391293D03*
X0164155Y0391293D03*
X0165730Y0391293D03*
X0167305Y0391293D03*
X0168880Y0391293D03*
X0170455Y0391293D03*
X0172029Y0391293D03*
X0173604Y0391293D03*
X0173604Y0234293D03*
X0172029Y0234293D03*
X0170455Y0234293D03*
X0168880Y0234293D03*
X0167305Y0234293D03*
X0165730Y0234293D03*
X0164155Y0234293D03*
X0162581Y0234293D03*
X0161006Y0234293D03*
X0161006Y0227207D03*
X0162581Y0227207D03*
X0164155Y0227207D03*
X0165730Y0227207D03*
X0167305Y0227207D03*
X0168880Y0227207D03*
X0170455Y0227207D03*
X0172029Y0227207D03*
X0173604Y0227207D03*
X0175179Y0227207D03*
X0293006Y0227207D03*
X0294581Y0227207D03*
X0296155Y0227207D03*
X0297730Y0227207D03*
X0299305Y0227207D03*
X0300880Y0227207D03*
X0302455Y0227207D03*
X0304029Y0227207D03*
X0305604Y0227207D03*
X0307179Y0227207D03*
X0305604Y0234293D03*
X0304029Y0234293D03*
X0302455Y0234293D03*
X0300880Y0234293D03*
X0299305Y0234293D03*
X0297730Y0234293D03*
X0296155Y0234293D03*
X0294581Y0234293D03*
X0293006Y0234293D03*
X0425006Y0234293D03*
X0426581Y0234293D03*
X0428155Y0234293D03*
X0429730Y0234293D03*
X0431305Y0234293D03*
X0432880Y0234293D03*
X0434455Y0234293D03*
X0436029Y0234293D03*
X0437604Y0234293D03*
X0437604Y0227207D03*
X0436029Y0227207D03*
X0434455Y0227207D03*
X0432880Y0227207D03*
X0431305Y0227207D03*
X0429730Y0227207D03*
X0428155Y0227207D03*
X0426581Y0227207D03*
X0425006Y0227207D03*
X0439179Y0227207D03*
X0557006Y0227207D03*
X0558581Y0227207D03*
X0560155Y0227207D03*
X0561730Y0227207D03*
X0563305Y0227207D03*
X0564880Y0227207D03*
X0566455Y0227207D03*
X0568029Y0227207D03*
X0569604Y0227207D03*
X0571179Y0227207D03*
X0569604Y0234293D03*
X0568029Y0234293D03*
X0566455Y0234293D03*
X0564880Y0234293D03*
X0563305Y0234293D03*
X0561730Y0234293D03*
X0560155Y0234293D03*
X0558581Y0234293D03*
X0557006Y0234293D03*
X0557006Y0077293D03*
X0558581Y0077293D03*
X0560155Y0077293D03*
X0561730Y0077293D03*
X0563305Y0077293D03*
X0564880Y0077293D03*
X0566455Y0077293D03*
X0568029Y0077293D03*
X0569604Y0077293D03*
X0569604Y0070207D03*
X0568029Y0070207D03*
X0566455Y0070207D03*
X0564880Y0070207D03*
X0563305Y0070207D03*
X0561730Y0070207D03*
X0560155Y0070207D03*
X0558581Y0070207D03*
X0557006Y0070207D03*
X0571179Y0070207D03*
X0439179Y0070207D03*
X0437604Y0070207D03*
X0436029Y0070207D03*
X0434455Y0070207D03*
X0432880Y0070207D03*
X0431305Y0070207D03*
X0429730Y0070207D03*
X0428155Y0070207D03*
X0426581Y0070207D03*
X0425006Y0070207D03*
X0425006Y0077293D03*
X0426581Y0077293D03*
X0428155Y0077293D03*
X0429730Y0077293D03*
X0431305Y0077293D03*
X0432880Y0077293D03*
X0434455Y0077293D03*
X0436029Y0077293D03*
X0437604Y0077293D03*
X0307179Y0070207D03*
X0305604Y0070207D03*
X0304029Y0070207D03*
X0302455Y0070207D03*
X0300880Y0070207D03*
X0299305Y0070207D03*
X0297730Y0070207D03*
X0296155Y0070207D03*
X0294581Y0070207D03*
X0293006Y0070207D03*
X0293006Y0077293D03*
X0294581Y0077293D03*
X0296155Y0077293D03*
X0297730Y0077293D03*
X0299305Y0077293D03*
X0300880Y0077293D03*
X0302455Y0077293D03*
X0304029Y0077293D03*
X0305604Y0077293D03*
X0175179Y0070207D03*
X0173604Y0070207D03*
X0172029Y0070207D03*
X0170455Y0070207D03*
X0168880Y0070207D03*
X0167305Y0070207D03*
X0165730Y0070207D03*
X0164155Y0070207D03*
X0162581Y0070207D03*
X0161006Y0070207D03*
X0161006Y0077293D03*
X0162581Y0077293D03*
X0164155Y0077293D03*
X0165730Y0077293D03*
X0167305Y0077293D03*
X0168880Y0077293D03*
X0170455Y0077293D03*
X0172029Y0077293D03*
X0173604Y0077293D03*
D15*
X0175179Y0077096D03*
X0307179Y0077096D03*
X0439179Y0077096D03*
X0571179Y0077096D03*
X0571179Y0234096D03*
X0439179Y0234096D03*
X0307179Y0234096D03*
X0175179Y0234096D03*
X0175179Y0391096D03*
X0307179Y0391096D03*
X0439179Y0391096D03*
X0571179Y0391096D03*
X0571179Y0548096D03*
X0439179Y0548096D03*
X0307179Y0548096D03*
X0175179Y0548096D03*
M02*
